<svg width="543" height="361" viewBox="0 0 543 361" fill="none" xmlns="http://www.w3.org/2000/svg">
<path opacity="0.05" d="M520.492 226.9H19.3034C19.3034 226.9 -0.103384 212.13 10.1702 194.318C20.4437 176.506 44.4226 188.686 44.4226 188.686C44.4226 188.686 21.5786 150.309 52.4047 124.021C83.2308 97.7318 107.302 124.021 107.302 124.021C107.302 124.021 97.2239 68.049 142.173 56.6287C187.123 45.2085 191.988 83.5692 191.988 83.5692C191.988 83.5692 189.273 40.6687 220.724 25.8001C252.174 10.9315 303.618 7.53206 331.566 37.204C359.515 66.876 342.655 99.6542 342.655 99.6542C342.655 99.6542 383.966 81.4948 419.218 88.2014C450.712 94.1749 465.188 120.746 469.831 150.994C473.317 173.709 512.896 149.908 504.539 191.755C502.622 201.247 538.759 214.503 520.492 226.9Z" fill="#22A7A7"/>
<g opacity="0.33">
<path opacity="0.33" d="M64.3567 153.383H61.4408C52.747 153.383 45.6992 160.431 45.6992 169.126V185.515C45.6992 194.21 52.747 201.258 61.4408 201.258H64.3567C73.0505 201.258 80.0983 194.21 80.0983 185.515V169.126C80.0983 160.431 73.0505 153.383 64.3567 153.383Z" fill="#22A7A7"/>
<path opacity="0.33" d="M63.5099 187.779H62.6411V232.467H63.5099V187.779Z" fill="#22A7A7"/>
</g>
<g opacity="0.33">
<path opacity="0.33" d="M91.9895 182.507H90.1107C84.5237 182.507 79.9946 187.036 79.9946 192.623V203.164C79.9946 208.751 84.5237 213.281 90.1107 213.281H91.9895C97.5765 213.281 102.106 208.751 102.106 203.164V192.623C102.106 187.036 97.5765 182.507 91.9895 182.507Z" fill="#22A7A7"/>
<path opacity="0.33" d="M91.5983 204.619H90.7295V233.341H91.5983V204.619Z" fill="#22A7A7"/>
</g>
<path opacity="0.05" d="M148.836 237.468C148.836 237.468 150.835 226.433 162.411 223.105C173.988 219.776 160.864 216.452 164.236 208.746C167.608 201.041 184.474 211.158 184.474 211.158C184.474 211.158 180.352 191.027 196.463 191.912C212.574 192.797 215.571 204.728 215.571 204.728C215.571 204.728 216.695 183.039 227.941 178.917C239.186 174.795 245.545 191.912 245.545 191.912C245.545 191.912 254.385 179.509 264.653 182.74C274.921 185.971 284.141 199.917 284.141 199.917C284.141 199.917 291.819 191.912 298.379 191.912C303.722 191.912 314.305 203.316 315.212 214.253C317.46 204.739 323.72 184.054 343.502 188.485C363.283 192.917 359.526 207.878 359.526 207.878C359.526 207.878 380.491 204.288 385.139 216.528C389.787 228.769 380.355 237.468 380.355 237.468H148.836Z" fill="#22A7A7"/>
<g opacity="0.33">
<path opacity="0.33" d="M519.032 157.624H516.116C507.422 157.624 500.375 164.673 500.375 173.367V189.756C500.375 198.451 507.422 205.499 516.116 205.499H519.032C527.726 205.499 534.774 198.451 534.774 189.756V173.367C534.774 164.673 527.726 157.624 519.032 157.624Z" fill="#22A7A7"/>
<path opacity="0.33" d="M518.185 192.026H517.316V236.713H518.185V192.026Z" fill="#22A7A7"/>
</g>
<g opacity="0.33">
<path opacity="0.33" d="M297.781 230.034C294.799 230.025 291.941 228.836 289.833 226.727C287.725 224.617 286.537 221.759 286.53 218.777C286.53 218.777 291.189 186.036 296.885 186.036H298.677C304.373 186.036 309.032 218.777 309.032 218.777C309.025 221.759 307.838 224.617 305.729 226.727C303.621 228.836 300.764 230.025 297.781 230.034Z" fill="#22A7A7"/>
<path opacity="0.33" d="M298.596 219.825H297.412V242.698H298.596V219.825Z" fill="#22A7A7"/>
</g>
<path opacity="0.3" d="M294.073 347.125C393.021 347.125 473.235 343.916 473.235 339.957C473.235 335.998 393.021 332.789 294.073 332.789C195.124 332.789 114.91 335.998 114.91 339.957C114.91 343.916 195.124 347.125 294.073 347.125Z" fill="#E7E7E7"/>
<path d="M145.703 293.57H92.3154V298.984H145.703V293.57Z" fill="#00354D"/>
<path d="M117.961 273.461H111.853V296.28H117.961V273.461Z" fill="#00354D"/>
<path d="M215.685 145.547H203.125V147.697H215.685V145.547Z" fill="#0287B4"/>
<path d="M487.989 285.783H499.462V306.277C499.462 306.277 498.686 309.688 494.336 309.688H374.453C374.453 309.688 375.36 313.364 369.908 313.364H308.728C308.728 313.364 305.633 312.463 305.633 310.318V303.964H224.976L221.001 308.737H140.154C140.154 308.737 143.531 289.068 150.683 282.715C154.93 278.919 159.572 275.59 164.529 272.782H192.222L195.746 275.443H382.815L385.242 272.782V266.483H443.153L487.989 285.783Z" fill="#0287B4"/>
<path d="M412.702 339.463C430.02 339.463 444.06 325.422 444.06 308.102C444.06 290.782 430.02 276.741 412.702 276.741C395.383 276.741 381.343 290.782 381.343 308.102C381.343 325.422 395.383 339.463 412.702 339.463Z" fill="#BDBDBD"/>
<path d="M412.702 329.172C424.337 329.172 433.77 319.739 433.77 308.102C433.77 296.465 424.337 287.032 412.702 287.032C401.066 287.032 391.633 296.465 391.633 308.102C391.633 319.739 401.066 329.172 412.702 329.172Z" fill="#E7E7E7"/>
<path d="M407.017 295.726H418.365C418.365 295.726 416.736 299.663 412.691 299.663C408.646 299.663 407.017 295.726 407.017 295.726Z" fill="#00354D"/>
<path d="M418.365 321.2H407.017C407.017 321.2 408.646 317.263 412.691 317.263C416.736 317.263 418.365 321.2 418.365 321.2Z" fill="#00354D"/>
<path d="M425.853 302.427V313.782C425.853 313.782 421.917 312.153 421.917 308.102C421.917 304.051 425.853 302.427 425.853 302.427Z" fill="#00354D"/>
<path d="M400.191 302.427V313.782C400.191 313.782 404.128 312.153 404.128 308.102C404.128 304.051 400.191 302.427 400.191 302.427Z" fill="#00354D"/>
<path d="M412.691 311.11C414.352 311.11 415.699 309.763 415.699 308.102C415.699 306.44 414.352 305.093 412.691 305.093C411.029 305.093 409.683 306.44 409.683 308.102C409.683 309.763 411.029 311.11 412.691 311.11Z" fill="#00354D"/>
<path d="M177.061 341.662C194.38 341.662 208.42 327.621 208.42 310.301C208.42 292.981 194.38 278.94 177.061 278.94C159.743 278.94 145.703 292.981 145.703 310.301C145.703 327.621 159.743 341.662 177.061 341.662Z" fill="#BDBDBD"/>
<path d="M177.062 331.371C188.697 331.371 198.13 321.938 198.13 310.301C198.13 298.665 188.697 289.231 177.062 289.231C165.426 289.231 155.993 298.665 155.993 310.301C155.993 321.938 165.426 331.371 177.062 331.371Z" fill="#E7E7E7"/>
<path d="M171.376 297.692H182.725C182.725 297.692 181.096 301.629 177.051 301.629C173.005 301.629 171.376 297.692 171.376 297.692Z" fill="#00354D"/>
<path d="M182.725 323.4H171.376C171.376 323.4 173.005 319.463 177.051 319.463C181.096 319.463 182.725 323.4 182.725 323.4Z" fill="#00354D"/>
<path d="M190.213 304.648V315.998C190.213 315.998 186.276 314.369 186.276 310.323C186.276 306.277 190.213 304.648 190.213 304.648Z" fill="#00354D"/>
<path d="M164.529 304.648V315.998C164.529 315.998 168.466 314.369 168.466 310.323C168.466 306.277 164.529 304.648 164.529 304.648Z" fill="#00354D"/>
<path d="M177.061 313.31C178.723 313.31 180.07 311.963 180.07 310.301C180.07 308.64 178.723 307.293 177.061 307.293C175.4 307.293 174.053 308.64 174.053 310.301C174.053 311.963 175.4 313.31 177.061 313.31Z" fill="#00354D"/>
<path d="M385.448 267.032V180.877C385.448 180.877 384.319 172.688 393.621 172.688C402.922 172.688 467.523 174.763 467.523 174.763C467.523 174.763 475.375 173.584 480.479 184.054C485.583 194.524 495.075 215.551 495.721 228.828C496.367 242.106 497.545 285.783 497.545 285.783H488.157V300.212H455.859C455.859 300.212 452.661 284.599 440.715 274.629C428.769 264.658 401.82 267.026 401.82 267.026L385.448 267.032Z" fill="#E7E7E7"/>
<path d="M359.281 141.767C360.055 141.767 360.682 141.14 360.682 140.366C360.682 139.592 360.055 138.965 359.281 138.965C358.508 138.965 357.88 139.592 357.88 140.366C357.88 141.14 358.508 141.767 359.281 141.767Z" stroke="#27AAE1" stroke-width="0.64" stroke-miterlimit="10"/>
<path d="M323.937 141.441C324.531 141.441 325.013 140.96 325.013 140.366C325.013 139.772 324.531 139.291 323.937 139.291C323.344 139.291 322.862 139.772 322.862 140.366C322.862 140.96 323.344 141.441 323.937 141.441Z" stroke="#27AAE1" stroke-width="0.64" stroke-miterlimit="10"/>
<path d="M227.935 141.441C228.529 141.441 229.01 140.96 229.01 140.366C229.01 139.772 228.529 139.291 227.935 139.291C227.341 139.291 226.86 139.772 226.86 140.366C226.86 140.96 227.341 141.441 227.935 141.441Z" stroke="#27AAE1" stroke-width="0.64" stroke-miterlimit="10"/>
<path d="M494.13 284.235H497.513L496.861 261.607H493.842C493.364 261.608 492.905 261.799 492.567 262.138C492.229 262.477 492.04 262.936 492.04 263.415V282.144C492.04 282.699 492.26 283.231 492.652 283.623C493.044 284.015 493.576 284.235 494.13 284.235Z" fill="#BDBDBD"/>
<path opacity="0.5" d="M408.847 217.609V190.761C408.847 190.761 408.553 183.549 415.395 183.549H459.465C462.794 183.549 466.475 183.354 469.679 192.091C473.692 203.034 482.521 230.593 482.521 230.593C482.521 230.593 488.358 243.463 467.344 238.793C446.33 234.123 415.118 225.364 415.118 225.364C415.118 225.364 408.847 223.441 408.847 217.609Z" fill="#7AC7E1"/>
<path d="M488.26 300.304H487.717C487.717 299.886 487.956 258.202 487.809 246.227C487.663 234.253 483.069 220.617 483.026 220.482C482.982 220.346 476.51 200.46 472.03 189.707C467.686 179.389 462.039 179.656 461.979 179.656H412.202C405.252 179.656 404.741 189.371 404.736 189.468V267.341H404.193V189.452C404.193 189.333 404.736 179.107 412.202 179.107H461.963C462.006 179.107 463.521 179.02 465.595 180.275C467.474 181.415 470.205 183.935 472.529 189.506C477.042 200.28 483.476 220.123 483.541 220.319C483.607 220.514 488.206 234.215 488.352 246.233C488.499 258.25 488.26 299.886 488.26 300.304Z" fill="#BDBDBD"/>
<path d="M404.464 251.169H404.139C403.286 251.169 402.468 250.83 401.866 250.228C401.263 249.625 400.924 248.807 400.924 247.954V239.667C400.924 238.815 401.263 237.997 401.866 237.394C402.468 236.791 403.286 236.453 404.139 236.453H404.437V251.169H404.464Z" fill="#BDBDBD"/>
<path d="M496.085 252.527H386.513V253.07H496.085V252.527Z" fill="#BDBDBD"/>
<path d="M210.668 139.753H208.143V145.547H210.668V139.753Z" fill="#0287B4"/>
<path d="M242.618 129.75L240.446 129.598C240.668 126.285 243.025 119.861 250.35 119.28C258.539 118.612 260.89 125.834 260.911 125.905L258.848 126.53C258.772 126.301 256.969 120.898 250.529 121.419C243.264 122.017 242.64 129.435 242.618 129.75Z" fill="#27AAE1"/>
<path d="M477.112 235.073C477.112 235.073 480.593 235.844 481.337 238.332H484.356C484.448 238.332 484.539 238.35 484.624 238.385C484.709 238.42 484.786 238.472 484.851 238.537C484.916 238.602 484.968 238.679 485.003 238.764C485.038 238.849 485.056 238.94 485.056 239.032V245.739C485.058 245.865 485.027 245.989 484.968 246.101C484.908 246.212 484.821 246.306 484.714 246.374C484.079 246.764 483.357 246.99 482.613 247.031C482.49 247.038 482.367 247.02 482.25 246.979C482.134 246.937 482.027 246.873 481.936 246.791C481.845 246.708 481.771 246.608 481.718 246.496C481.666 246.385 481.636 246.264 481.63 246.141C481.556 244.894 481.556 243.645 481.63 242.399C481.639 242.279 481.613 242.16 481.555 242.055C481.497 241.95 481.41 241.864 481.304 241.807C480.761 241.503 479.675 240.83 479.377 239.852C478.942 238.494 477.118 238.69 477.118 238.69V235.062" fill="#616261"/>
<path d="M472.28 219.39C472.28 219.39 469.766 225.282 469.766 229.246C469.766 233.211 472.28 239.874 472.28 239.874V219.39Z" fill="#BDBDBD"/>
<path d="M404.725 236.458H405.024C405.876 236.458 406.694 236.797 407.297 237.4C407.9 238.003 408.238 238.82 408.238 239.673V247.96C408.238 248.812 407.9 249.63 407.297 250.233C406.694 250.836 405.876 251.175 405.024 251.175H404.725V236.458Z" fill="#616261"/>
<path d="M380.393 157.049L379.258 155.197C379.665 154.947 389.287 148.827 388.006 135.169C387.724 132.134 386.567 130.021 384.482 128.702C378.65 125.02 367.649 128.979 367.551 129.022L366.802 126.98C367.29 126.801 378.9 122.636 385.633 126.861C388.294 128.539 389.819 131.265 390.167 134.963C391.579 150.005 380.855 156.772 380.393 157.049Z" fill="#27AAE1"/>
<path d="M366.26 173.089L362.589 173.613L365.525 194.165L369.196 193.641L366.26 173.089Z" fill="#0287B4"/>
<path d="M357.945 144.303L361.03 172.938C361.059 173.203 361.143 173.46 361.275 173.692C361.406 173.924 361.584 174.127 361.797 174.288C362.01 174.449 362.254 174.565 362.513 174.629C362.772 174.693 363.041 174.703 363.305 174.66L365.547 174.279C366.039 174.198 366.482 173.931 366.785 173.535C367.087 173.138 367.227 172.641 367.176 172.145L364.168 143.711C364.113 143.206 363.864 142.741 363.473 142.416C363.082 142.091 362.579 141.93 362.072 141.968L359.754 142.147C359.492 142.166 359.236 142.237 359.002 142.356C358.768 142.475 358.56 142.64 358.392 142.841C358.223 143.043 358.096 143.276 358.02 143.527C357.943 143.778 357.918 144.042 357.945 144.303Z" fill="#27AAE1"/>
<path d="M271.722 139.753H230.199V142.327H271.722V139.753Z" fill="#0287B4"/>
<path d="M321.831 138.748H272.195C271.035 138.748 270.094 139.689 270.094 140.85V141.463C270.094 142.624 271.035 143.565 272.195 143.565H321.831C322.991 143.565 323.932 142.624 323.932 141.463V140.85C323.932 139.689 322.991 138.748 321.831 138.748Z" fill="#27AAE1"/>
<path d="M209.403 129.055V130.38L202.539 137.265V140.985H216.603L214.974 144.396H230.694C230.694 144.396 230.221 136.728 235.993 136.728H315.771C315.771 136.728 321.396 137.418 321.396 144.396H360.682C360.682 144.396 369.408 140.372 374.637 140.366C379.867 140.361 381.924 137.971 381.924 134.773C381.924 131.574 378.916 129.055 374.637 129.055C373.41 129.088 372.222 129.495 371.233 130.222C371.233 130.222 369.962 124.993 364.891 124.993H251.67L243.688 127.811L229.027 128.305L227.941 129.294L209.403 129.055Z" fill="#079AC9"/>
<path d="M209.403 130.38H201.676L192.548 139.753H202.523" fill="#27AAE1"/>
<path d="M363.598 275.443V194.111C363.598 194.111 369.24 192.542 370.657 183.408C372.074 174.274 375.354 138.965 375.354 138.965L379.785 132.112C380.77 132.915 381.564 133.927 382.108 135.075C382.653 136.222 382.935 137.477 382.934 138.748C382.934 143.092 382.809 275.443 382.809 275.443H363.598Z" fill="#079AC9"/>
<path d="M360.682 275.443H161.434L47.0889 273.206V268.53L161.635 261.612H353.129L360.682 275.443Z" fill="#079AC9"/>
<path d="M352.738 275.443H360.682V212.238L352.738 220.493V275.443Z" fill="#079AC9"/>
<path d="M472.28 217.636V242.28C472.444 242.655 472.714 242.974 473.058 243.197C473.402 243.42 473.803 243.537 474.213 243.534C475.565 243.436 477.112 242.665 477.112 238.701V221.215C477.112 221.215 476.531 217.251 472.28 217.636Z" fill="#616261"/>
<path d="M181.899 275.443H174.015L186.015 261.612H193.905L181.899 275.443Z" fill="#7AC7E1"/>
<path d="M202.908 275.443H195.019L207.024 261.612H214.914L202.908 275.443Z" fill="#7AC7E1"/>
<path d="M223.917 275.443H216.027L228.033 261.612H235.922L223.917 275.443Z" fill="#7AC7E1"/>
<path d="M244.925 275.443H237.036L249.041 261.612H256.926L244.925 275.443Z" fill="#7AC7E1"/>
<path d="M265.934 275.443H258.044L270.05 261.612H277.935L265.934 275.443Z" fill="#7AC7E1"/>
<path d="M286.943 275.443H279.053L291.059 261.612H298.943L286.943 275.443Z" fill="#7AC7E1"/>
<path d="M307.951 275.443H300.062L312.067 261.612H319.952L307.951 275.443Z" fill="#7AC7E1"/>
<path d="M328.96 275.443H321.07L333.071 261.612H340.96L328.96 275.443Z" fill="#7AC7E1"/>
<path d="M348.676 275.443H340.792L352.792 261.612H360.682L348.676 275.443Z" fill="#7AC7E1"/>
<path opacity="0.5" d="M375.354 137.428C376.82 137.428 378.009 136.239 378.009 134.773C378.009 133.306 376.82 132.117 375.354 132.117C373.888 132.117 372.699 133.306 372.699 134.773C372.699 136.239 373.888 137.428 375.354 137.428Z" fill="#7AC7E1"/>
<path d="M209.402 155.191C211.472 155.191 213.149 153.514 213.149 151.444C213.149 149.375 211.472 147.697 209.402 147.697C207.333 147.697 205.656 149.375 205.656 151.444C205.656 153.514 207.333 155.191 209.402 155.191Z" fill="#0287B4"/>
<path d="M208.007 150.994C208.007 150.994 206.78 157.011 209.163 159.139C212.905 162.501 214.512 167.133 210.353 167.969C204.923 169.055 205.596 162.713 205.596 162.713C205.596 162.713 206.139 159.677 204.271 163.196C203.055 165.488 203.239 172.721 210.586 172.297C217.27 171.912 217.678 165.422 216.456 162.832C214.756 159.226 211.748 157.945 211.026 155.707C210.304 153.47 211.498 150.977 211.498 150.977L208.007 150.994Z" fill="#0287B4"/>
<path opacity="0.5" d="M209.402 153.074C210.302 153.074 211.031 152.344 211.031 151.444C211.031 150.545 210.302 149.815 209.402 149.815C208.503 149.815 207.773 150.545 207.773 151.444C207.773 152.344 208.503 153.074 209.402 153.074Z" fill="#7AC7E1"/>
<path d="M102.296 183.549C102.296 183.549 74.4994 199.922 70.9048 206.134C70.6821 213.71 72.0831 216.409 75.0207 217.538C77.9583 218.668 89.3342 217.538 89.3342 217.538L90.2573 213.846L85.5821 203.631L106.015 186.921C106.015 186.921 107.074 183.603 102.296 183.549Z" fill="#B0D7E4"/>
<path d="M269.415 202.985C269.415 202.985 234.745 182.159 225.975 182.278C224.064 184.994 224.59 184.994 224.59 184.994L239.735 191.385L256.568 200.53L269.415 202.985Z" fill="#E7E7E7"/>
<path d="M326.658 243.86L274.443 245.57C274.443 245.57 280.15 213.161 300.149 216.431C320.148 219.7 325.703 224.967 326.658 243.86Z" fill="#00354D"/>
<path d="M151.736 246.173L99.5156 247.884C99.5156 247.884 105.223 215.475 125.221 218.739C145.22 222.002 150.78 227.275 151.736 246.173Z" fill="#00354D"/>
<path d="M302.125 260.374C312.807 260.374 321.467 251.714 321.467 241.031C321.467 230.348 312.807 221.687 302.125 221.687C291.443 221.687 282.784 230.348 282.784 241.031C282.784 251.714 291.443 260.374 302.125 260.374Z" fill="#BDBDBD"/>
<path d="M302.125 255.025C309.854 255.025 316.119 248.759 316.119 241.031C316.119 233.302 309.854 227.036 302.125 227.036C294.397 227.036 288.132 233.302 288.132 241.031C288.132 248.759 294.397 255.025 302.125 255.025Z" fill="#E7E7E7"/>
<path d="M302.125 242.687C303.04 242.687 303.781 241.945 303.781 241.03C303.781 240.116 303.04 239.374 302.125 239.374C301.21 239.374 300.469 240.116 300.469 241.03C300.469 241.945 301.21 242.687 302.125 242.687Z" fill="#00354D"/>
<path d="M312.589 238.69L312.66 244.05C312.666 244.242 312.617 244.431 312.52 244.596C312.422 244.762 312.28 244.896 312.109 244.983C311.938 245.07 311.746 245.107 311.555 245.089C311.364 245.071 311.182 244.998 311.031 244.881L307.431 242.247C307.304 242.152 307.201 242.03 307.129 241.888C307.058 241.747 307.021 241.591 307.021 241.432C307.021 241.274 307.058 241.118 307.129 240.977C307.201 240.835 307.304 240.712 307.431 240.618L310.96 237.903C311.109 237.787 311.286 237.716 311.473 237.696C311.66 237.676 311.849 237.709 312.019 237.791C312.188 237.873 312.331 238.001 312.432 238.159C312.533 238.318 312.587 238.502 312.589 238.69Z" fill="#00354D"/>
<path d="M291.243 238.972L291.314 244.332C291.318 244.519 291.374 244.702 291.475 244.859C291.576 245.017 291.719 245.144 291.887 245.225C292.056 245.306 292.244 245.34 292.43 245.321C292.616 245.303 292.794 245.233 292.943 245.12L296.467 242.404C296.594 242.31 296.697 242.187 296.768 242.046C296.839 241.904 296.876 241.748 296.876 241.59C296.876 241.432 296.839 241.276 296.768 241.134C296.697 240.993 296.594 240.87 296.467 240.775L292.872 238.142C292.72 238.026 292.539 237.956 292.349 237.939C292.158 237.922 291.967 237.959 291.797 238.046C291.627 238.133 291.485 238.266 291.387 238.429C291.289 238.593 291.239 238.782 291.243 238.972Z" fill="#00354D"/>
<path d="M299.193 252.114L294.572 249.399C294.409 249.304 294.275 249.166 294.186 249C294.097 248.834 294.057 248.646 294.069 248.457C294.082 248.269 294.146 248.088 294.256 247.935C294.366 247.782 294.517 247.662 294.691 247.59L298.807 245.874C298.952 245.814 299.108 245.787 299.265 245.797C299.421 245.807 299.573 245.854 299.709 245.933C299.844 246.012 299.959 246.121 300.045 246.253C300.131 246.384 300.185 246.533 300.203 246.689L300.713 251.12C300.735 251.308 300.704 251.497 300.624 251.668C300.544 251.839 300.418 251.984 300.26 252.087C300.102 252.19 299.919 252.247 299.73 252.252C299.542 252.257 299.356 252.209 299.193 252.114Z" fill="#00354D"/>
<path d="M309.51 233.618L304.889 230.903C304.726 230.808 304.54 230.76 304.351 230.765C304.163 230.769 303.98 230.827 303.822 230.93C303.664 231.033 303.538 231.178 303.458 231.349C303.378 231.52 303.347 231.709 303.369 231.896L303.879 236.322C303.897 236.478 303.951 236.627 304.037 236.759C304.123 236.89 304.238 237 304.373 237.079C304.508 237.158 304.66 237.205 304.816 237.216C304.973 237.227 305.13 237.202 305.274 237.142L309.39 235.421C309.563 235.348 309.713 235.229 309.822 235.076C309.931 234.923 309.995 234.743 310.007 234.556C310.02 234.369 309.98 234.182 309.892 234.016C309.804 233.851 309.672 233.713 309.51 233.618Z" fill="#00354D"/>
<path d="M309.722 249.258L305.128 252.022C304.967 252.12 304.782 252.171 304.594 252.17C304.406 252.169 304.221 252.115 304.062 252.014C303.903 251.914 303.775 251.77 303.693 251.601C303.61 251.432 303.577 251.242 303.597 251.055L304.058 246.618C304.074 246.462 304.126 246.312 304.209 246.179C304.293 246.046 304.407 245.935 304.541 245.854C304.676 245.772 304.827 245.724 304.984 245.711C305.14 245.699 305.297 245.723 305.443 245.782L309.575 247.455C309.75 247.525 309.901 247.642 310.013 247.793C310.125 247.944 310.192 248.123 310.207 248.311C310.222 248.498 310.185 248.686 310.099 248.853C310.013 249.021 309.883 249.161 309.722 249.258Z" fill="#00354D"/>
<path d="M298.927 230.984L294.333 233.748C294.172 233.846 294.042 233.986 293.956 234.153C293.87 234.321 293.832 234.508 293.847 234.696C293.861 234.883 293.928 235.063 294.039 235.215C294.149 235.367 294.3 235.485 294.474 235.557L298.612 237.229C298.757 237.287 298.914 237.31 299.071 237.298C299.227 237.285 299.378 237.236 299.512 237.155C299.646 237.074 299.759 236.963 299.844 236.831C299.928 236.699 299.98 236.549 299.997 236.393L300.453 231.956C300.473 231.769 300.44 231.58 300.358 231.411C300.277 231.242 300.15 231.098 299.991 230.997C299.832 230.896 299.649 230.841 299.461 230.839C299.273 230.837 299.088 230.887 298.927 230.984Z" fill="#00354D"/>
<path d="M127.236 262.725C137.918 262.725 146.577 254.065 146.577 243.382C146.577 232.699 137.918 224.039 127.236 224.039C116.554 224.039 107.894 232.699 107.894 243.382C107.894 254.065 116.554 262.725 127.236 262.725Z" fill="#BDBDBD"/>
<path d="M127.236 257.376C134.964 257.376 141.229 251.111 141.229 243.382C141.229 235.653 134.964 229.388 127.236 229.388C119.508 229.388 113.243 235.653 113.243 243.382C113.243 251.111 119.508 257.376 127.236 257.376Z" fill="#E7E7E7"/>
<path d="M127.236 245.038C128.15 245.038 128.892 244.297 128.892 243.382C128.892 242.467 128.15 241.726 127.236 241.726C126.321 241.726 125.58 242.467 125.58 243.382C125.58 244.297 126.321 245.038 127.236 245.038Z" fill="#00354D"/>
<path d="M137.694 241.041L137.765 246.401C137.769 246.592 137.719 246.78 137.621 246.944C137.523 247.108 137.381 247.241 137.211 247.328C137.041 247.415 136.85 247.452 136.659 247.435C136.469 247.418 136.288 247.347 136.136 247.232L132.536 244.598C132.409 244.504 132.305 244.381 132.234 244.239C132.163 244.098 132.126 243.942 132.126 243.784C132.126 243.625 132.163 243.469 132.234 243.328C132.305 243.187 132.409 243.064 132.536 242.969L136.065 240.254C136.214 240.139 136.391 240.067 136.578 240.047C136.766 240.028 136.954 240.061 137.124 240.143C137.293 240.224 137.436 240.352 137.537 240.511C137.638 240.669 137.692 240.853 137.694 241.041Z" fill="#00354D"/>
<path d="M116.348 241.324L116.419 246.684C116.423 246.871 116.479 247.053 116.58 247.211C116.681 247.368 116.824 247.495 116.992 247.576C117.161 247.658 117.349 247.691 117.535 247.673C117.721 247.654 117.899 247.584 118.048 247.471L121.572 244.756C121.7 244.662 121.804 244.539 121.876 244.398C121.947 244.256 121.985 244.1 121.985 243.941C121.985 243.783 121.947 243.626 121.876 243.485C121.804 243.343 121.7 243.22 121.572 243.127L117.977 240.493C117.825 240.377 117.644 240.307 117.454 240.29C117.263 240.273 117.072 240.31 116.902 240.397C116.732 240.484 116.59 240.617 116.492 240.781C116.394 240.945 116.344 241.133 116.348 241.324Z" fill="#00354D"/>
<path d="M124.276 254.466L119.655 251.75C119.492 251.656 119.358 251.518 119.27 251.351C119.181 251.185 119.14 250.997 119.153 250.809C119.165 250.621 119.23 250.44 119.34 250.287C119.45 250.133 119.601 250.014 119.775 249.942L123.891 248.226C124.036 248.166 124.193 248.141 124.349 248.152C124.505 248.163 124.657 248.21 124.792 248.289C124.927 248.369 125.042 248.478 125.128 248.61C125.214 248.741 125.268 248.89 125.286 249.046L125.797 253.472C125.818 253.659 125.787 253.849 125.707 254.019C125.627 254.19 125.501 254.335 125.344 254.438C125.186 254.542 125.002 254.599 124.814 254.604C124.625 254.608 124.439 254.561 124.276 254.466Z" fill="#00354D"/>
<path d="M134.61 235.964L129.989 233.249C129.826 233.154 129.641 233.106 129.453 233.111C129.265 233.116 129.082 233.172 128.924 233.275C128.767 233.377 128.641 233.521 128.56 233.691C128.48 233.861 128.448 234.05 128.468 234.237L128.979 238.663C128.996 238.819 129.05 238.969 129.135 239.101C129.221 239.233 129.336 239.343 129.471 239.423C129.607 239.502 129.759 239.549 129.916 239.56C130.072 239.57 130.23 239.544 130.374 239.483L134.49 237.767C134.663 237.694 134.813 237.575 134.922 237.422C135.03 237.27 135.095 237.089 135.107 236.902C135.12 236.715 135.08 236.528 134.992 236.362C134.904 236.197 134.772 236.059 134.61 235.964Z" fill="#00354D"/>
<path d="M134.827 251.625L130.233 254.389C130.072 254.486 129.887 254.536 129.698 254.533C129.51 254.531 129.327 254.476 129.168 254.375C129.009 254.274 128.882 254.131 128.799 253.962C128.717 253.793 128.683 253.605 128.702 253.417L129.163 248.981C129.18 248.825 129.232 248.675 129.316 248.543C129.4 248.411 129.514 248.3 129.648 248.219C129.782 248.139 129.934 248.091 130.09 248.079C130.246 248.066 130.403 248.091 130.548 248.15L134.664 249.801C134.843 249.868 135 249.984 135.116 250.136C135.232 250.289 135.303 250.471 135.32 250.662C135.337 250.852 135.3 251.044 135.212 251.215C135.125 251.385 134.991 251.528 134.827 251.625Z" fill="#00354D"/>
<path d="M124.032 233.336L119.46 236.1C119.299 236.197 119.169 236.337 119.083 236.504C118.997 236.671 118.96 236.859 118.975 237.047C118.99 237.234 119.057 237.413 119.169 237.564C119.281 237.716 119.432 237.833 119.607 237.903L123.739 239.575C123.885 239.634 124.042 239.658 124.198 239.646C124.355 239.634 124.506 239.585 124.641 239.504C124.775 239.423 124.889 239.311 124.973 239.178C125.056 239.046 125.108 238.895 125.124 238.739L125.585 234.308C125.607 234.117 125.574 233.925 125.491 233.752C125.408 233.579 125.277 233.434 125.115 233.332C124.953 233.231 124.765 233.177 124.573 233.177C124.382 233.178 124.194 233.233 124.032 233.336Z" fill="#00354D"/>
<path d="M152.154 251.012L276.762 251.196C276.762 251.196 278.288 247.743 277.848 245.527C277.408 243.311 278.728 217.5 300.258 217.804C321.787 218.109 326.397 237.093 324.53 249.888C332.946 249.638 343.79 247.992 346.336 245.179C346.336 243.485 343.317 242.85 343.317 242.85C343.317 242.85 345.191 240.786 345.446 239.559C345.701 238.332 345.185 230.191 345.56 227.612C345.935 225.032 344.061 218.766 344.724 216.431C339.788 211.967 325.176 206.775 306.545 205.228C287.915 203.68 269.355 202.328 269.355 202.328C269.355 202.328 263.735 202.632 248.325 194.399C241.369 190.679 233.023 187.046 226.301 184.999C222.158 183.739 231.427 182.615 223.01 180.807C207.529 177.473 183.29 177.549 183.29 177.549L133.28 179.205L112.401 180.068L112.428 181.86C112.428 181.86 97.3112 181.86 97.1755 183.088C97.0397 184.315 102.958 183.468 103.887 184.673C104.815 185.879 105.288 186.786 102.719 188.339C100.151 189.892 87.9662 198.271 84.0511 202.887C85.0231 207.286 88.7644 214.079 88.7644 214.079C88.7644 214.079 89.8504 217.261 86.0494 217.158C82.2484 217.055 73.3052 216.436 73.3052 216.436C73.3052 216.436 74.9342 225.668 71.7685 226.781C68.6028 227.894 68.467 229.865 68.3422 232.152C68.2173 234.438 68.429 238.842 68.429 238.842C70.1635 239.767 71.725 240.985 73.0445 242.442C75.2165 244.837 91.0559 247.216 91.0559 247.216L104.631 249.317C104.631 249.317 101.08 222.437 123.565 220.465C146.051 218.494 150.096 236.849 150.275 238.674C150.455 240.498 150.846 249.399 152.154 251.012Z" fill="#ED5A70"/>
<path d="M318.475 214.025C318.377 214.334 317.992 216.3 317.992 216.3C317.992 216.3 324.432 219.825 325.594 220.943C326.756 222.062 330.378 224.077 333.885 224.337C336.565 224.477 339.252 224.443 341.927 224.234C341.927 224.234 346.119 221.323 343.817 219.021C341.514 216.718 340.059 215.285 334.07 214.747C328.081 214.21 318.475 214.025 318.475 214.025Z" fill="#B0D7E4"/>
<path d="M255.568 203.712L196.381 201.942L191.581 182.148C191.581 182.148 232.301 181.469 255.568 203.712Z" fill="#B0D7E4"/>
<path d="M188.345 182.192L192.857 201.709C192.857 201.709 145.481 201.198 139.242 200.997C133.002 200.796 105.608 199.596 105.608 199.596C105.608 199.596 100.927 199.52 104.989 195.491C109.051 191.461 112.841 187.019 118.276 186.259C123.712 185.499 168.053 180.877 188.345 182.192Z" fill="#B0D7E4"/>
<path d="M261.069 206.634C261.069 206.634 265.049 233.374 262.904 239.928C261.52 243.93 260.901 245.255 260.901 245.255L164.529 244.544C164.529 244.544 160.842 245.63 154.929 236.013C149.016 226.395 140.811 211.711 140.811 211.711C140.811 211.711 138.047 206.205 141.555 201.768" stroke="#E7E7E7" stroke-width="0.64" stroke-miterlimit="10"/>
<path d="M195.138 202.453C195.138 202.453 201.974 227.775 198.732 244.81" stroke="#E7E7E7" stroke-width="0.64" stroke-miterlimit="10"/>
<path d="M208.609 212.268L212.1 212.222C213.216 212.207 214.108 211.29 214.093 210.175C214.079 209.059 213.162 208.167 212.047 208.182L208.556 208.228C207.44 208.243 206.548 209.159 206.563 210.275C206.577 211.39 207.494 212.283 208.609 212.268Z" fill="#00354D"/>
<path d="M150.962 212.035L154.453 211.989C155.569 211.974 156.461 211.058 156.446 209.942C156.432 208.827 155.515 207.934 154.4 207.949L150.909 207.995C149.793 208.01 148.901 208.927 148.916 210.042C148.93 211.158 149.847 212.05 150.962 212.035Z" fill="#00354D"/>
<path d="M345.006 228.551L338.832 228.622C338.832 228.622 336.41 228.741 336.209 230.343C336.008 231.945 332.593 238.397 332.94 240.026C333.288 241.655 333.103 243.876 336.513 243.724C338.682 243.612 340.84 243.341 342.97 242.915" stroke="#E7E7E7" stroke-width="0.64" stroke-miterlimit="10"/>
<path d="M345.114 236.686L333.711 236.838" stroke="#E7E7E7" stroke-width="0.64" stroke-miterlimit="10"/>
<path d="M326.24 212.2C326.24 212.2 293.356 206.824 265.766 206.661C238.176 206.498 86.6138 205.95 86.6138 205.95" stroke="#E7E7E7" stroke-width="0.64" stroke-miterlimit="10"/>
<path d="M276.707 239.749L156.449 238.31" stroke="#E7E7E7" stroke-width="0.64" stroke-miterlimit="10"/>
<path d="M100.276 234.807C100.276 234.807 78.3548 233.585 72.4307 233.031" stroke="#E7E7E7" stroke-width="0.64" stroke-miterlimit="10"/>
<path d="M202.976 211.118L216.653 210.936C217.145 210.93 217.538 210.526 217.532 210.034L217.532 210.028C217.525 209.536 217.121 209.143 216.629 209.15L202.952 209.331C202.461 209.338 202.067 209.742 202.074 210.233L202.074 210.239C202.08 210.731 202.484 211.124 202.976 211.118Z" fill="#BDBDBD"/>
<path d="M145.854 210.979L159.531 210.797C160.023 210.791 160.417 210.387 160.41 209.895L160.41 209.89C160.403 209.398 160 209.004 159.508 209.011L145.831 209.192C145.339 209.199 144.946 209.603 144.952 210.095L144.952 210.1C144.959 210.592 145.363 210.985 145.854 210.979Z" fill="#BDBDBD"/>
</svg>
